P2
6 4
255
0 0 14 0 255 70 
0 18 0 0 255 50
0 20 0 0 255 21
0 0 25 0 50 39