P2
# Hola mundo
# lalala
6 4
255
0 0 0 0 255 70 
0 0 0 0 255 50
0 0 0 0 255 200
0 0 0 0 50  12